<?xml version="1.0" encoding="iso-8859-1"?>
<!-- Uploaded to: SVG Repo, www.svgrepo.com, Generator: SVG Repo Mixer Tools -->
<svg fill="#000000" height="800px" width="800px" version="1.1" id="Layer_1" xmlns="http://www.w3.org/2000/svg" xmlns:xlink="http://www.w3.org/1999/xlink" 
	 viewBox="0 0 512 512" xml:space="preserve">
<g>
	<g>
		<path d="M57.614,288.611c-4.504,0-8.153,3.65-8.153,8.153v76.637c0,4.503,3.649,8.153,8.153,8.153s8.153-3.65,8.153-8.153v-76.637
			C65.766,292.262,62.117,288.611,57.614,288.611z"/>
	</g>
</g>
<g>
	<g>
		<path d="M454.386,288.611c-4.504,0-8.153,3.65-8.153,8.153v76.637c0,4.503,3.649,8.153,8.153,8.153
			c4.504,0,8.153-3.65,8.153-8.153v-76.637C462.539,292.262,458.89,288.611,454.386,288.611z"/>
	</g>
</g>
<g>
	<g>
		<path d="M510.937,136.824L462.02,6.378c-1.193-3.183-4.235-5.291-7.633-5.291c-3.398,0-6.441,2.108-7.633,5.291l-48.917,130.446
			c-0.342,0.915-0.52,1.885-0.52,2.862v46.2L264.153,69.67V58.648c12.531-3.559,21.741-15.098,21.741-28.755
			C285.894,13.41,272.483,0,256,0s-29.894,13.41-29.894,29.894c0,13.657,9.21,25.196,21.741,28.755V69.67L114.684,185.885v-46.2
			c0-0.977-0.176-1.948-0.52-2.862L65.247,6.378c-1.192-3.183-4.235-5.291-7.633-5.291s-6.441,2.108-7.633,5.291L1.063,136.824
			c-0.344,0.914-0.52,1.885-0.52,2.862v364.161c0,4.503,3.649,8.153,8.153,8.153h494.607c4.504,0,8.153-3.65,8.153-8.153V139.686
			C511.456,138.708,511.28,137.738,510.937,136.824z M57.614,32.459l36.744,97.987H20.869L57.614,32.459z M98.378,495.694H16.849
			V272.306h81.529V495.694z M98.378,256H82.072v-68.484c0-13.487-10.973-24.459-24.459-24.459s-24.459,10.972-24.459,24.459v44.026
			c0,4.503,3.649,8.153,8.153,8.153s8.153-3.65,8.153-8.153v-44.026c0-4.496,3.657-8.153,8.153-8.153s8.153,3.657,8.153,8.153V256
			H16.849V146.752h81.529V256z M242.412,29.894c0-7.493,6.095-13.588,13.588-13.588s13.588,6.095,13.588,13.588
			c0,7.493-6.095,13.588-13.588,13.588S242.412,37.387,242.412,29.894z M247.847,495.694h-35.329v-92.399
			c0-21.189,15.238-38.876,35.329-42.705V495.694z M299.482,495.694h-35.329V360.59c20.091,3.829,35.329,21.515,35.329,42.705
			V495.694z M332.093,495.694h-16.306v-92.399c0-32.967-26.821-59.788-59.788-59.788s-59.788,26.821-59.788,59.788v92.399h-16.306
			v-92.399c0-41.958,34.135-76.093,76.093-76.093c41.958,0,76.093,34.135,76.093,76.093V495.694z M397.316,495.694h-48.917v-92.399
			c0-50.949-41.45-92.399-92.399-92.399c-50.949,0-92.399,41.45-92.399,92.399v92.399h-48.917V207.527L256,84.196l141.316,123.331
			V495.694z M454.386,32.459l36.744,97.987h-73.49L454.386,32.459z M495.151,495.694h-81.529V272.306h81.529V495.694z M495.151,256
			h-16.306v-68.484c0-13.487-10.973-24.459-24.459-24.459c-13.486,0-24.459,10.972-24.459,24.459v44.026
			c0,4.503,3.649,8.153,8.153,8.153s8.153-3.65,8.153-8.153v-44.026c0-4.496,3.657-8.153,8.153-8.153
			c4.496,0,8.153,3.657,8.153,8.153V256h-48.917V146.752h81.529V256z"/>
	</g>
</g>
<g>
	<g>
		<path d="M256,125.554c-31.468,0-57.07,25.601-57.07,57.07s25.602,57.07,57.07,57.07s57.07-25.601,57.07-57.07
			S287.468,125.554,256,125.554z M256,223.389c-22.478,0-40.764-18.286-40.764-40.764S233.522,141.86,256,141.86
			c22.478,0,40.764,18.286,40.764,40.764S278.478,223.389,256,223.389z"/>
	</g>
</g>
<g>
	<g>
		<path d="M372.858,256H139.142c-4.504,0-8.153,3.65-8.153,8.153s3.649,8.153,8.153,8.153h233.716c4.504,0,8.153-3.65,8.153-8.153
			S377.361,256,372.858,256z"/>
	</g>
</g>
</svg>