<?xml version="1.0" standalone="no"?>
<!DOCTYPE svg PUBLIC "-//W3C//DTD SVG 20010904//EN"
 "http://www.w3.org/TR/2001/REC-SVG-20010904/DTD/svg10.dtd">
<svg version="1.0" xmlns="http://www.w3.org/2000/svg"
 width="662.000000pt" height="1069.000000pt" viewBox="0 0 662.000000 1069.000000"
 preserveAspectRatio="xMidYMid meet">

<g transform="translate(0.000000,1069.000000) scale(0.100000,-0.100000)"
fill="#ddffff" stroke="#ddffff">
<path d="M0 5345 l0 -5345 3310 0 3310 0 0 5345 0 5345 -3310 0 -3310 0 0
-5345z m5089 5231 c11 -7 11 -56 0 -56 -5 0 -9 -11 -9 -24 0 -13 -7 -29 -15
-36 -12 -10 -13 -16 -4 -26 9 -10 8 -15 -3 -19 -8 -3 -19 -5 -24 -4 -5 1 -19
1 -30 0 -17 -1 -20 -6 -16 -27 4 -20 2 -25 -8 -19 -10 6 -11 -2 -6 -38 4 -27
3 -48 -3 -51 -6 -4 -8 -13 -4 -21 3 -9 0 -22 -7 -30 -10 -12 -16 -13 -28 -3
-13 11 -14 11 -8 0 6 -10 3 -13 -9 -10 -36 7 -52 133 -22 166 9 9 17 33 19 52
2 28 8 36 27 38 15 2 30 -3 36 -12 10 -13 14 -9 25 24 7 22 10 43 7 46 -4 4 1
20 10 35 16 27 43 33 72 15z m-263 -253 c-4 -27 -9 -55 -12 -64 -6 -22 21 -48
43 -43 22 6 50 -51 29 -60 -8 -3 -7 -7 3 -14 10 -7 20 -3 37 17 26 30 43 23
21 -10 -10 -14 -14 -33 -10 -50 5 -26 3 -29 -23 -30 l-29 -1 28 -11 c31 -12
35 -32 10 -41 -15 -6 -15 -8 -3 -17 16 -10 14 -12 -29 -38 -13 -8 -12 -13 3
-36 10 -16 23 -24 32 -21 8 3 14 -1 14 -10 0 -8 4 -13 9 -9 9 5 -3 -52 -13
-62 -11 -11 -27 11 -22 30 4 17 1 16 -19 -8 -26 -32 -30 -51 -16 -74 7 -10 4
-19 -7 -27 -15 -11 -14 -14 13 -25 23 -9 26 -13 13 -16 -10 -3 -18 -9 -18 -14
0 -6 -4 -8 -9 -5 -11 7 -21 -28 -21 -80 0 -29 -4 -41 -15 -41 -8 0 -15 9 -15
19 0 11 -4 17 -8 14 -4 -2 -14 -1 -21 3 -13 8 -5 61 9 61 5 0 6 9 3 20 -3 11
0 34 7 50 11 26 10 33 -4 43 -14 11 -14 15 -1 40 18 35 16 120 -2 105 -7 -6
-13 -7 -14 -2 0 5 -4 1 -8 -9 -4 -10 -11 -18 -16 -17 -5 1 -12 -6 -15 -16 -6
-15 -10 -14 -33 10 -15 15 -27 32 -27 38 0 5 -6 8 -13 5 -7 -2 -23 4 -35 14
-18 14 -23 27 -20 51 3 29 6 33 33 34 17 0 37 4 43 8 7 4 19 5 27 2 8 -3 17
-1 20 4 4 7 13 7 24 1 12 -7 18 -6 18 2 0 7 4 21 8 32 7 16 6 18 -6 8 -23 -22
-51 -16 -47 10 2 12 9 21 15 20 7 -2 10 4 7 12 -4 8 -10 15 -16 15 -5 0 -8 6
-7 13 3 25 -1 38 -11 32 -6 -3 -13 1 -16 10 -4 10 -13 13 -25 10 -10 -4 -23
-4 -28 0 -14 8 -2 35 14 35 8 0 15 10 17 23 2 14 10 22 23 22 13 0 25 12 35
33 9 22 20 32 30 29 9 -2 21 2 28 10 21 22 25 15 18 -34z m243 28 c5 -7 14
-10 20 -7 13 8 14 -13 2 -33 -7 -10 -13 -11 -30 -2 -17 10 -20 9 -15 -4 9 -22
-13 -18 -26 4 -18 35 -12 57 15 56 14 0 30 -6 34 -14z m-59 -271 c-20 -27 -50
-41 -50 -22 0 18 33 52 51 52 20 0 20 0 -1 -30z m-984 -1017 c-2 -15 -8 -29
-15 -31 -12 -4 -13 3 -5 36 9 31 23 28 20 -5z m-37 -15 c-2 -14 8 -35 24 -52
32 -34 33 -39 10 -57 -10 -7 -15 -10 -11 -5 4 5 3 17 -3 27 -8 15 -14 17 -29
9 -20 -11 -22 -9 -47 39 -17 30 -16 31 6 31 10 0 24 7 31 15 17 21 22 19 19
-7z m285 -60 c6 -4 -1 -8 -17 -8 -19 0 -31 -7 -38 -24 -7 -14 -17 -22 -25 -19
-8 3 -14 0 -14 -7 0 -9 -3 -10 -13 -1 -11 8 -17 5 -27 -14 -7 -14 -17 -25 -22
-25 -16 0 -8 31 16 57 13 14 22 33 19 42 -3 11 3 16 22 17 22 2 25 -1 19 -19
-6 -19 -3 -18 27 6 23 18 35 22 38 14 2 -6 9 -15 15 -19z m-180 -102 c-1 -29
-7 -42 -18 -44 -9 -2 -16 3 -16 12 0 9 -4 16 -10 16 -5 0 -10 7 -10 16 0 11 5
14 16 10 12 -5 14 -1 9 15 -4 11 -1 27 6 35 12 14 14 14 19 -1 3 -10 5 -36 4
-59z m-154 4 c0 -5 8 -6 18 -3 15 4 19 -1 20 -26 1 -26 -3 -31 -23 -31 -18 0
-22 -4 -18 -20 3 -11 9 -20 14 -20 5 0 9 -12 9 -26 0 -19 -4 -25 -15 -20 -9 3
-15 0 -15 -9 0 -8 -5 -15 -11 -15 -5 0 -7 -5 -4 -10 5 -8 11 -7 21 1 10 8 18
8 27 0 10 -8 17 -7 26 2 9 9 14 9 20 -2 5 -8 7 -20 4 -28 -4 -10 1 -10 23 2
22 11 30 12 33 3 2 -7 -1 -14 -7 -16 -7 -2 -12 -8 -12 -13 0 -5 14 -3 30 6
l30 16 0 -30 c0 -22 -6 -30 -23 -35 -13 -3 -29 -16 -35 -28 -6 -13 -11 -17
-11 -10 -2 26 -20 11 -19 -16 1 -15 -4 -38 -11 -50 -7 -13 -10 -31 -6 -41 8
-26 -18 -46 -35 -26 -7 9 -10 18 -7 22 3 3 0 18 -8 34 -19 36 -19 39 6 39 11
0 18 4 14 9 -3 6 2 14 10 18 14 8 14 14 -3 51 -11 24 -22 38 -28 33 -5 -4 -29
-16 -54 -25 -42 -17 -45 -17 -57 0 -8 10 -11 24 -9 31 7 16 -6 17 -22 1 -8 -8
-15 -8 -27 2 -13 10 -15 28 -13 79 2 36 7 72 11 79 5 6 6 16 3 21 -11 17 62
22 93 6 40 -20 45 -19 27 6 -11 16 -12 26 -4 39 11 17 38 17 38 0z m70 -41 c0
-10 -4 -19 -9 -19 -10 0 -21 36 -14 44 10 10 23 -5 23 -25z m164 -11 c-3 -4 1
-8 8 -8 7 0 14 -11 14 -24 2 -32 -31 -42 -41 -12 -6 18 -8 19 -12 4 -6 -22
-23 -24 -23 -3 0 9 7 18 15 22 14 5 14 7 0 23 -13 14 -13 19 -3 22 16 6 49
-13 42 -24z m-110 -59 c-4 -7 -7 -21 -8 -33 -1 -17 -6 -20 -31 -18 -37 5 -35
3 -29 29 4 14 11 19 25 16 10 -3 19 0 19 6 0 6 7 11 16 11 9 0 12 -5 8 -11z
m-249 -165 c33 -25 60 -78 49 -95 -3 -5 0 -9 5 -9 6 0 11 7 11 15 0 8 9 19 19
25 27 14 30 13 24 -10 -3 -11 -11 -20 -18 -20 -7 0 -15 -9 -18 -20 -4 -16 -13
-20 -44 -20 -32 1 -41 6 -60 36 -13 20 -23 39 -23 44 0 4 -7 10 -15 14 -17 6
-10 35 13 54 20 16 18 16 57 -14z m-35 -245 c0 -6 15 -8 44 -4 26 4 46 3 50
-3 4 -6 22 -8 42 -5 34 6 35 5 29 -23 -4 -16 -17 -49 -29 -74 -25 -50 -24 -70
5 -70 23 0 23 -3 1 -61 -24 -62 -60 -103 -115 -127 -33 -15 -55 -34 -75 -65
-26 -41 -100 -109 -166 -152 -15 -10 -32 -29 -37 -41 -4 -13 -24 -30 -44 -38
-28 -12 -35 -20 -35 -43 0 -53 -10 -71 -43 -77 l-32 -7 24 -13 c21 -12 28 -12
47 1 18 12 27 12 45 2 20 -10 25 -9 41 11 34 42 39 15 6 -34 -18 -27 -42 -64
-52 -83 -13 -23 -27 -33 -43 -33 -21 0 -22 3 -13 20 16 29 -4 25 -42 -9 -39
-35 -33 -48 16 -30 49 18 54 6 18 -36 -19 -20 -29 -41 -26 -50 4 -11 2 -13 -9
-10 -17 7 -62 -61 -46 -70 15 -10 80 57 74 76 -7 20 24 31 49 17 16 -9 55 -2
66 11 18 22 74 51 102 52 49 2 68 9 68 24 0 15 50 35 87 35 13 0 40 -8 61 -19
62 -31 95 -34 138 -12 37 18 43 19 104 5 96 -22 207 -26 214 -9 4 11 11 11 36
2 23 -9 35 -9 50 1 11 6 30 12 43 12 28 0 87 -27 87 -40 0 -5 8 -17 19 -27 10
-10 22 -36 26 -58 4 -22 11 -45 15 -50 18 -22 -8 -105 -32 -105 -6 0 -9 -3 -5
-6 3 -4 -9 -25 -27 -48 -60 -74 -94 -164 -74 -196 9 -14 3 -32 -29 -91 -24
-44 -42 -93 -45 -121 -4 -34 -15 -58 -43 -92 -21 -25 -43 -46 -50 -46 -16 0
-25 -22 -25 -58 0 -17 -8 -32 -21 -40 -16 -10 -18 -16 -10 -26 14 -17 -15 -73
-41 -81 -9 -3 -32 -23 -52 -45 -25 -27 -40 -37 -54 -33 -11 3 -29 0 -39 -6
-17 -10 -16 -10 5 -11 18 0 22 -6 22 -29 0 -17 -5 -33 -11 -37 -13 -8 38 -44
62 -44 8 0 26 -11 39 -25 23 -24 23 -25 5 -45 -10 -11 -39 -32 -64 -46 -44
-24 -47 -25 -74 -9 -27 16 -28 16 -82 -32 -30 -26 -55 -56 -55 -65 0 -20 -7
-25 -42 -32 -26 -4 -69 -25 -78 -38 -3 -4 -19 -1 -34 7 -33 17 -136 36 -136
25 0 -11 32 -23 52 -21 10 1 27 -3 39 -9 12 -7 40 -13 63 -14 22 -1 46 -5 52
-9 6 -3 27 -4 46 -2 26 3 40 -1 53 -15 19 -21 31 -20 88 3 15 7 27 17 27 23 0
6 9 23 21 38 27 35 85 36 126 2 15 -13 38 -27 51 -31 13 -4 38 -20 57 -36 19
-17 48 -31 67 -33 49 -5 78 -17 78 -32 0 -8 4 -14 9 -14 5 0 25 -33 44 -73 35
-73 72 -110 104 -105 9 2 18 -3 20 -10 4 -10 -2 -11 -24 -6 -25 7 -27 6 -14
-9 7 -9 17 -14 22 -11 5 3 12 -2 15 -10 3 -9 11 -16 18 -16 28 -1 53 -39 71
-112 14 -58 16 -80 7 -90 -8 -11 -8 -21 4 -43 8 -15 12 -36 9 -46 -3 -10 2
-33 11 -51 9 -18 18 -51 20 -73 1 -23 18 -69 38 -106 20 -37 37 -84 39 -105 5
-70 36 -152 67 -178 16 -13 26 -26 24 -29 -3 -3 -3 -15 1 -27 4 -12 9 -19 12
-16 3 2 24 -6 46 -18 23 -13 64 -28 91 -35 27 -7 66 -25 85 -40 20 -16 45 -31
57 -35 11 -3 27 -19 35 -34 7 -15 24 -40 36 -55 13 -16 28 -49 34 -73 8 -31
20 -49 40 -61 15 -9 26 -21 23 -25 -9 -14 16 -37 63 -58 44 -19 50 -40 13 -40
-23 0 -40 -28 -40 -65 0 -37 42 -135 81 -190 87 -122 99 -141 99 -167 0 -15
-4 -29 -9 -32 -4 -3 -6 5 -4 18 6 30 -21 41 -76 31 -35 -6 -40 -3 -78 38 -54
59 -55 59 -97 42 -43 -18 -98 -19 -114 -3 -9 9 -15 9 -24 -1 -11 -11 -10 -12
0 -6 8 4 21 0 32 -10 17 -15 23 -15 80 -1 34 9 63 16 65 16 2 0 11 -13 22 -29
17 -26 139 -135 191 -169 34 -23 113 -195 119 -262 l5 -55 -71 -72 c-68 -68
-90 -113 -57 -113 8 0 24 -12 36 -27 27 -35 75 -47 106 -27 12 8 27 34 34 59
7 25 18 49 24 54 23 19 253 13 309 -8 16 -6 39 -11 53 -11 40 0 94 -33 175
-108 89 -83 99 -108 101 -250 1 -86 -1 -103 -25 -152 -14 -30 -31 -86 -38
-125 -13 -78 -24 -105 -42 -105 -7 0 -35 -25 -61 -55 -26 -30 -51 -53 -56 -50
-5 3 -14 -4 -20 -15 -9 -16 -8 -25 1 -36 26 -32 -84 -110 -122 -86 -14 9 -26
8 -52 -3 -36 -15 -68 -45 -48 -45 6 0 14 7 17 15 4 8 12 15 19 15 9 0 14 -19
17 -61 3 -61 3 -62 -37 -96 -36 -31 -44 -34 -82 -28 -25 3 -43 2 -43 -3 0 -5
-22 -12 -49 -16 -39 -5 -50 -11 -54 -29 -6 -20 -5 -20 7 -4 20 26 94 22 154
-8 28 -14 57 -25 65 -25 23 0 50 -42 34 -52 -17 -11 15 -10 46 1 13 5 53 12
89 15 36 3 77 8 91 11 30 8 41 -7 33 -41 -5 -18 -12 -24 -23 -20 -12 5 -14 2
-9 -16 4 -13 10 -42 13 -66 5 -36 2 -47 -17 -67 -13 -14 -28 -25 -33 -25 -5 0
-23 -6 -40 -14 -18 -8 -44 -17 -58 -20 -49 -11 -72 -38 -72 -85 l0 -43 -56 7
c-51 6 -58 4 -79 -18 -16 -17 -47 -31 -97 -42 -60 -14 -80 -25 -111 -56 -39
-40 -34 -40 -109 -8 -68 29 -160 50 -188 45 -18 -3 -66 -10 -107 -15 -85 -11
-128 -25 -145 -47 -10 -14 -15 -13 -48 6 -27 16 -57 23 -100 25 -45 1 -73 8
-101 25 -22 13 -37 19 -33 13 9 -14 -36 -47 -76 -57 -15 -3 -32 -15 -39 -25
-10 -17 -13 -17 -51 -2 -31 12 -42 12 -45 3 -2 -7 -22 -12 -47 -12 -45 0 -66
-15 -64 -46 4 -42 -1 -52 -30 -56 -17 -2 -38 0 -47 5 -23 13 -165 37 -177 30
-5 -3 -4 -10 2 -16 16 -16 13 -53 -6 -68 -15 -12 -16 -12 -11 8 15 56 -193
181 -247 148 -11 -7 -52 -18 -92 -24 -55 -10 -74 -17 -78 -31 -4 -12 -19 -22
-41 -26 -44 -8 -77 -55 -70 -97 4 -19 1 -30 -9 -33 -20 -8 -19 -34 1 -34 19 0
10 -40 -13 -55 -44 -29 -54 -42 -55 -72 -1 -36 -18 -44 -70 -34 -22 5 -37 16
-46 34 -13 27 -52 45 -71 33 -15 -9 -61 23 -61 43 -1 12 -5 10 -21 -8 -12 -15
-23 -21 -27 -14 -21 32 -96 44 -116 19 -12 -16 -104 -25 -125 -12 -16 10 -31
-4 -35 -35 -5 -36 -17 -60 -28 -53 -15 9 -75 -24 -81 -45 -2 -11 -15 -21 -28
-23 -25 -3 -31 -21 -17 -50 11 -22 -10 -58 -33 -58 -9 0 -19 -9 -22 -20 -7
-28 -21 -25 -36 8 -7 15 -18 38 -24 51 -8 14 -31 31 -61 42 -51 19 -69 18 -60
-5 7 -19 -21 -38 -58 -39 -31 -2 -33 0 -34 33 -1 51 3 56 58 85 41 21 52 24
65 14 12 -11 18 -9 34 11 10 14 19 21 19 17 0 -15 60 34 60 49 0 8 6 14 14 14
13 0 26 19 32 50 2 8 7 16 12 18 28 9 42 31 44 69 2 33 7 43 20 43 9 0 23 8
30 18 7 9 19 17 26 18 6 1 21 2 32 3 14 1 22 10 26 29 3 16 19 37 35 47 16 11
29 25 29 31 0 7 11 19 25 28 23 15 26 23 25 74 -1 31 1 74 5 95 6 32 11 37 36
37 15 0 31 -4 34 -10 11 -18 51 -10 73 15 23 26 29 69 12 80 -15 9 -12 25 5
25 9 0 12 6 9 15 -3 8 0 17 8 20 15 6 198 36 213 35 6 0 40 -2 77 -3 37 -2 77
-10 90 -19 37 -24 81 -28 128 -12 24 8 49 13 57 10 8 -3 23 -2 32 4 15 8 17
16 11 50 -4 22 -4 40 1 40 4 0 10 14 14 30 4 18 13 30 23 30 9 1 29 19 44 40
17 24 36 40 48 40 13 0 27 14 40 41 23 45 20 60 -7 38 -37 -30 -82 -49 -115
-49 -42 0 -101 -39 -118 -79 -10 -25 -20 -32 -64 -40 -31 -7 -65 -7 -88 -2
-20 5 -39 7 -41 4 -2 -2 -18 12 -35 31 -16 19 -38 36 -48 38 -9 1 -28 23 -41
48 -13 25 -29 51 -36 57 -18 18 -72 1 -70 -21 1 -14 -6 -17 -39 -15 -21 2 -42
-1 -46 -6 -20 -29 -82 -5 -82 30 0 26 24 50 40 40 5 -3 20 -3 31 0 l21 7 -21
14 c-12 9 -30 12 -46 8 -30 -7 -65 18 -65 48 0 20 -15 24 -26 7 -3 -6 -17 -9
-30 -6 -12 2 -40 1 -60 -2 -30 -5 -38 -11 -41 -31 -5 -34 -15 -41 -58 -45 -20
-2 -42 -11 -48 -20 -15 -20 -76 -10 -85 14 -3 9 -13 22 -21 28 -14 11 -14 14
-1 23 13 8 13 10 -2 10 -9 0 -20 -4 -23 -10 -9 -15 -25 -12 -25 5 0 9 -12 18
-30 21 -16 4 -27 10 -25 14 3 5 14 6 25 3 10 -3 26 2 35 11 9 9 23 16 32 16
12 0 14 6 8 27 -9 38 -22 45 -77 39 -49 -5 -62 5 -30 23 9 6 13 11 8 11 -15 0
63 49 89 56 13 3 24 9 23 13 -3 29 4 41 26 41 14 0 28 -5 32 -11 4 -8 9 -8 17
0 6 6 19 11 29 11 10 0 18 4 18 9 0 5 9 12 19 16 11 3 22 14 25 23 7 21 55 43
96 44 20 1 44 12 66 31 19 17 41 32 48 33 8 1 32 15 52 30 68 52 113 198 80
262 -20 39 -20 66 -1 86 21 21 19 46 -9 87 -17 24 -21 40 -15 46 15 15 0 61
-22 68 -45 15 -170 -49 -152 -78 2 -4 -1 -15 -8 -23 -11 -14 -15 -13 -30 7
-13 17 -20 20 -31 12 -18 -15 -78 -27 -78 -16 0 33 90 133 119 133 5 0 30 20
55 45 38 36 46 50 44 76 -1 17 -9 34 -18 37 -29 11 -65 44 -70 65 -3 12 -15
24 -25 26 -11 2 -24 9 -28 17 -4 8 -14 14 -21 14 -8 0 -17 7 -20 15 -9 23 35
37 51 16 13 -17 13 -17 15 51 0 22 7 29 34 38 19 7 52 9 74 5 35 -6 42 -12 62
-53 12 -26 23 -48 24 -50 1 -1 13 3 27 9 14 6 33 9 42 5 15 -5 14 -9 -5 -36
-19 -27 -20 -30 -4 -30 9 0 39 10 65 23 41 19 48 25 44 45 -5 21 4 29 19 15 3
-4 14 -8 24 -9 9 -2 18 -8 20 -13 6 -19 78 -12 136 14 60 26 82 31 88 16 2 -5
25 -25 52 -46 l49 -37 -7 33 c-3 18 -13 40 -21 49 -26 28 -17 47 29 66 34 14
42 22 35 34 -37 70 -39 81 -23 113 9 16 29 49 46 71 26 37 28 41 11 45 -36 7
-43 22 -43 97 l0 74 45 12 c48 13 52 21 33 63 -10 23 -9 29 20 54 29 27 30 31
19 60 -6 17 -15 31 -20 31 -4 0 -5 6 -1 13 5 8 2 8 -9 -2 -9 -7 -17 -19 -17
-25 0 -20 -38 -16 -43 5 -6 21 -27 26 -27 6 0 -7 -12 -32 -27 -54 -24 -38 -28
-40 -40 -25 -11 15 -12 15 -13 2 0 -9 6 -22 13 -29 10 -11 9 -13 -2 -9 -8 2
-23 21 -34 42 l-20 37 22 30 c12 17 20 38 18 47 -3 12 -5 11 -6 -5 0 -13 -5
-23 -10 -23 -5 0 -15 -2 -23 -5 -17 -7 -68 74 -68 107 0 15 -23 58 -55 103
-52 72 -54 78 -40 98 8 12 15 40 15 63 0 25 6 47 15 54 8 7 15 17 15 22 0 6
11 24 25 40 14 16 22 34 19 39 -7 12 13 67 34 91 7 9 20 14 28 11 10 -3 12 0
8 10 -3 10 4 22 20 32 23 15 26 15 51 -1 26 -17 37 -14 41 11 2 10 -9 13 -44
11 -26 -2 -69 0 -95 4 -28 4 -50 3 -54 -2 -3 -6 -18 -8 -33 -4 -26 5 -28 3
-25 -22 6 -48 -3 -64 -39 -61 -18 2 -42 -4 -55 -14 -14 -9 -29 -13 -34 -10 -6
4 -8 0 -5 -9 4 -10 -6 -22 -34 -37 -49 -26 -88 -28 -89 -3 -1 11 -3 9 -8 -7
l-6 -24 -33 28 c-17 15 -32 33 -32 41 0 8 -6 11 -16 7 -8 -3 -28 4 -44 16 -16
11 -32 21 -35 21 -12 0 8 -45 26 -58 14 -10 16 -18 9 -43 -5 -16 -6 -37 -3
-45 3 -8 0 -21 -7 -29 -10 -13 -16 -12 -44 2 -17 9 -55 40 -85 69 -29 30 -61
54 -71 54 -10 0 -20 7 -24 15 -8 21 -21 19 -51 -7 l-25 -23 24 -75 c19 -62 21
-76 9 -78 -21 -5 -43 17 -43 44 0 33 -20 73 -55 112 -44 50 -54 72 -55 124 0
39 4 48 21 53 27 9 40 -5 42 -46 1 -18 8 -34 15 -37 17 -5 15 19 -4 58 -16 31
-16 36 1 84 10 28 34 70 53 93 22 28 36 57 39 85 3 24 13 52 23 63 10 11 20
32 24 47 4 17 15 30 29 33 13 4 28 19 34 35 9 24 8 32 -8 49 -13 13 -15 21 -6
24 21 7 -21 57 -53 64 -17 3 -30 10 -30 16 0 6 -10 21 -21 33 -19 20 -20 27
-11 51 8 19 9 48 3 86 -10 74 -5 102 23 116 17 10 28 9 51 -3 17 -9 39 -16 50
-15 14 0 15 2 5 6 -8 3 -25 17 -37 31 -13 15 -23 21 -23 15 0 -7 -11 -13 -25
-13 -20 0 -27 6 -31 30 -4 17 -10 30 -14 30 -5 0 -6 -9 -3 -19 3 -11 -5 -49
-17 -85 -16 -50 -26 -66 -40 -66 -12 0 -20 8 -22 23 -2 13 -6 18 -10 11 -4 -7
1 -22 11 -35 19 -24 33 -89 20 -89 -4 0 -5 -9 -2 -20 8 -28 -16 -25 -26 4 -5
13 -17 26 -25 29 -9 4 -16 17 -16 30 0 14 -7 30 -15 37 -13 10 -15 9 -15 -9 0
-21 -1 -21 -27 -4 -46 29 -53 44 -49 98 4 48 27 108 46 120 9 6 41 65 35 65
-6 0 -75 -100 -75 -110 0 -5 -12 -13 -26 -16 -25 -6 -26 -9 -19 -53 4 -25 17
-65 31 -88 29 -50 31 -80 5 -88 -28 -9 -55 -72 -57 -135 -1 -30 -11 -79 -23
-108 -16 -39 -19 -58 -11 -72 5 -10 10 -26 10 -35 0 -22 -47 -68 -61 -59 -6 3
-21 1 -34 -6 -38 -20 -55 -7 -55 43 0 31 6 50 22 67 18 19 23 37 24 82 1 33 4
62 8 65 3 3 9 28 12 55 4 26 10 48 14 48 4 0 12 11 18 25 10 22 9 29 -8 47
-26 28 -25 64 1 108 l21 35 -25 -23 -25 -24 -7 40 c-5 32 -1 50 20 91 14 29
32 54 40 57 7 3 11 12 9 19 -3 7 0 24 6 37 l11 23 -20 -24 c-17 -18 -21 -20
-21 -7 0 10 7 30 15 47 9 16 13 34 10 39 -3 6 -1 10 6 10 7 0 10 3 6 6 -10 10
-32 -10 -32 -30 0 -24 -21 -32 -29 -11 -3 8 -3 35 0 58 5 33 13 48 35 63 32
21 37 34 14 34 -17 0 -18 2 -9 24 3 9 11 16 18 16 16 1 66 47 66 62 0 9 -3 9
-10 -2 -17 -28 -21 -2 -5 32 17 33 17 33 -24 -9 -47 -49 -51 -51 -51 -23 0 11
5 20 11 20 10 0 30 17 106 92 17 17 29 37 27 43 -3 7 9 18 27 25 28 12 29 15
13 21 -10 3 -26 3 -34 -2 -30 -16 -99 -87 -115 -118 -18 -36 -74 -74 -89 -62
-6 5 -33 16 -59 26 -49 18 -97 64 -97 92 0 9 8 22 18 29 18 14 17 15 -75 19
-30 2 -63 20 -63 34 0 3 7 14 14 24 16 21 124 40 143 25 8 -6 15 2 23 26 7 22
19 36 33 40 14 3 23 13 23 26 0 11 0 20 -1 20 0 0 -15 -4 -32 -9 -37 -11 -52
1 -33 24 7 8 18 34 25 57 9 31 18 44 33 46 20 3 20 5 7 25 -12 20 -11 25 9 48
33 38 58 43 89 19 34 -27 41 -25 15 5 -12 14 -32 25 -44 25 -31 0 -35 21 -11
48 11 12 15 22 9 22 -7 0 -12 -5 -12 -10 0 -6 -12 -18 -27 -28 -16 -9 -29 -23
-31 -31 -4 -19 -81 -108 -100 -116 -8 -3 -20 -1 -25 4 -15 15 11 92 37 113
l21 18 -22 0 c-15 0 -23 6 -23 18 -1 10 -9 2 -21 -21 -20 -38 -39 -42 -39 -7
0 31 -18 32 -32 3 -13 -28 -34 -33 -32 -8 1 11 -5 13 -25 9 -21 -5 -24 -4 -13
7 15 17 16 37 0 21 -12 -12 -38 1 -38 20 0 5 -11 24 -25 42 -30 39 -31 51 -7
65 9 6 12 11 5 11 -6 0 -15 9 -18 20 -4 11 -11 18 -16 15 -5 -4 -9 -1 -9 5 0
6 -5 8 -10 5 -6 -4 -8 -11 -4 -16 3 -6 3 -16 0 -24 -8 -21 -96 30 -96 56 0 10
-7 19 -15 19 -19 0 -19 15 -2 32 8 7 12 20 10 29 -6 22 17 36 28 18 4 -8 15
-23 24 -34 16 -19 16 -19 12 8 -4 25 2 32 28 28 6 -1 -1 9 -15 21 -18 16 -24
31 -22 51 4 32 21 31 38 -1 12 -24 56 -62 72 -62 20 0 25 57 8 107 -5 16 -2
25 14 33 11 6 20 19 20 29 0 28 29 19 49 -14 9 -16 25 -37 36 -46 15 -13 21
-34 25 -88 3 -39 2 -82 -2 -96 -3 -14 -2 -25 3 -25 5 0 9 -10 9 -22 0 -38 12
-68 25 -68 7 0 16 -6 18 -12 3 -8 6 -6 6 5 1 10 9 17 20 17 23 0 37 -18 33
-42 -4 -24 10 -29 51 -16 22 7 39 19 43 32 11 35 33 54 56 48 21 -5 21 -5 2
15 -18 19 -20 19 -43 1 -43 -32 -65 -20 -63 36 0 17 -4 34 -11 38 -22 14 -9
138 15 138 6 0 20 -7 30 -17 10 -9 20 -14 23 -11 10 9 -27 68 -42 68 -12 0
-14 6 -8 27 9 38 25 55 47 50 10 -3 18 -1 18 4 0 5 -8 9 -17 9 -36 1 -49 23
-49 80 1 54 1 55 33 58 25 3 33 -1 39 -20 4 -13 8 -27 8 -33 1 -17 20 -18 30
-2 8 12 5 21 -12 37 -26 24 -26 24 -11 53 16 29 14 28 33 21 9 -3 16 -14 16
-25 0 -10 9 -23 20 -29 17 -9 22 -7 32 15 6 14 15 25 20 25 5 0 7 4 4 9 -10
16 18 19 35 4 12 -10 23 -11 43 -4 34 14 33 26 -3 42 -17 8 -35 24 -42 36 -7
13 -18 23 -25 23 -17 0 -41 41 -36 63 4 20 30 23 38 4 2 -7 13 -13 23 -14 15
-1 20 7 23 33 2 19 0 34 -4 34 -4 0 -8 5 -8 12 0 6 -11 25 -24 43 -29 37 -21
64 12 46 27 -14 32 -14 32 4 0 11 6 12 23 6 45 -17 58 5 33 53 -16 31 -5 76
27 111 18 19 18 42 0 38 -17 -3 -2 51 19 68 11 8 23 30 26 48 4 17 10 32 15
31 4 0 21 0 37 0 17 0 39 -9 50 -20 24 -24 31 -25 24 -5 -4 8 -4 15 -1 15 10
0 67 -61 67 -72 0 -13 25 -4 26 10 1 7 2 16 3 21 2 18 34 21 61 4 32 -19 43
-45 26 -65 -6 -7 3 0 21 16 24 22 38 27 57 22 14 -3 28 -1 31 4 4 6 11 8 16 5
5 -4 9 -1 9 4 0 6 11 11 25 11 13 0 29 8 34 18 9 14 12 15 20 3 6 -10 28 -15
63 -15 41 -1 60 4 85 23 31 23 93 35 93 17 0 -4 11 -5 25 -2 14 4 34 2 44 -3
27 -15 34 -1 9 19 -12 9 -18 22 -14 28 9 15 36 16 36 1z m-1468 -161 c23 -35
27 -65 15 -98 -8 -21 -8 -33 0 -41 8 -8 5 -17 -11 -33 -56 -59 -72 -91 -51
-100 8 -3 28 6 44 19 39 34 54 33 38 -2 -15 -36 -32 -53 -50 -53 -9 0 -18 6
-20 13 -4 9 -8 9 -15 -2 -5 -7 -14 -11 -20 -7 -6 4 -9 -23 -8 -77 3 -96 0
-107 -25 -107 -13 0 -19 -7 -19 -24 0 -31 -43 -59 -82 -54 -29 5 -29 4 -23
-29 7 -38 -5 -43 -36 -12 -26 26 -37 17 -16 -14 14 -22 14 -25 -4 -40 -11 -10
-23 -17 -27 -17 -4 0 -24 -16 -43 -35 l-36 -35 -28 33 c-15 17 -35 40 -42 49
-19 21 -8 44 13 27 11 -9 19 -6 39 15 14 15 25 34 25 42 0 8 10 14 26 14 39 0
19 18 -41 35 -35 11 -56 23 -60 35 -3 10 -12 21 -20 24 -8 3 -15 10 -15 16 0
14 33 13 49 -2 10 -11 12 -9 9 7 -1 11 -9 25 -16 30 -17 13 -19 125 -3 125 4
0 13 11 19 24 10 22 15 24 43 16 40 -12 47 -19 29 -30 -12 -8 -11 -10 7 -10
20 0 21 3 11 36 -11 41 -3 57 16 31 18 -23 24 -22 19 6 -5 32 12 49 87 83 33
15 97 67 165 134 36 35 39 36 57 8z m-482 -795 c0 -9 6 -13 14 -10 19 8 38
-16 30 -37 -3 -9 -16 -17 -28 -17 -16 -1 -17 -2 -3 -6 17 -5 23 -24 10 -37 -5
-4 -13 -26 -18 -49 -6 -23 -16 -41 -22 -40 -10 2 -11 -19 -3 -52 6 -23 -1 -37
-15 -31 -9 3 -15 0 -15 -9 0 -8 5 -15 10 -15 6 0 10 -6 9 -12 -1 -7 1 -20 5
-28 3 -8 -3 -32 -13 -54 -15 -28 -17 -44 -11 -62 5 -13 7 -30 4 -38 -3 -8 -1
-17 5 -21 6 -3 11 -13 11 -21 0 -11 -9 -13 -42 -8 -54 8 -57 11 -64 65 -4 24
-10 52 -15 61 -6 11 -5 18 3 20 7 3 12 29 13 66 1 34 8 68 15 77 7 8 8 15 2
15 -16 0 -21 50 -5 58 23 13 -1 58 -47 88 -37 25 -39 28 -25 44 8 9 15 21 15
27 0 12 57 26 71 17 5 -3 9 2 9 10 0 9 5 16 11 16 6 0 9 -6 6 -14 -7 -17 27
-10 43 9 14 17 40 8 40 -12z m616 -109 c-4 -15 -9 -40 -12 -58 -3 -17 -10 -41
-16 -53 -8 -16 -7 -30 2 -53 11 -27 11 -34 -3 -48 -23 -22 -40 -4 -42 45 -1
32 17 85 35 103 6 6 10 24 15 60 3 31 3 30 16 30 7 0 9 -10 5 -26z m-676 -464
c0 -11 -4 -20 -10 -20 -5 0 -10 9 -10 20 0 11 5 20 10 20 6 0 10 -9 10 -20z
m-50 -20 c0 -4 -8 -11 -17 -14 -12 -5 -13 -10 -5 -18 8 -8 15 -8 27 2 8 7 18
10 22 6 9 -8 -58 -75 -75 -76 -7 0 -11 -4 -7 -9 3 -5 -4 -13 -16 -16 -34 -11
-50 22 -24 49 8 8 15 22 15 30 0 9 7 16 15 16 8 0 15 8 15 19 0 13 7 19 25 19
14 0 25 -4 25 -8z m562 -7 c23 -21 23 -65 -1 -87 -22 -20 -38 -14 -70 25 l-23
30 23 25 c26 28 45 30 71 7z m86 -119 c4 -30 -13 -47 -37 -39 -26 8 -27 22 -3
46 21 22 36 19 40 -7z m-773 -101 c-2 -16 -4 -30 -4 -32 -1 -2 -8 2 -16 9 -11
9 -12 17 -4 31 14 28 28 23 24 -8z m595 -118 c0 -39 -46 -91 -87 -98 -10 -1
-24 -6 -30 -10 -20 -12 -16 16 5 35 9 10 33 33 52 53 37 37 60 45 60 20z m210
-57 c17 -18 33 -45 37 -60 4 -23 11 -28 37 -29 17 -1 34 -1 38 -1 3 1 12 -5
18 -13 7 -8 16 -15 21 -15 5 0 19 -9 32 -21 32 -27 25 -61 -24 -110 -45 -45
-85 -53 -73 -16 6 20 5 21 -12 7 -43 -34 -83 -49 -134 -51 -8 0 -28 -5 -43
-11 -40 -15 -77 3 -71 34 2 13 2 17 -2 11 -3 -7 -12 -13 -20 -13 -11 0 -12 4
-5 18 10 19 66 28 76 12 3 -4 15 -6 28 -3 64 13 107 26 107 33 0 4 -18 1 -41
-6 -59 -21 -75 -6 -39 36 11 13 20 27 20 32 0 4 8 8 18 8 11 0 27 9 37 20 18
20 18 20 -29 4 -53 -18 -116 -12 -116 11 0 11 10 14 41 11 39 -4 40 -3 20 10
-12 9 -25 12 -31 9 -5 -3 -19 -1 -30 5 -17 9 -19 14 -10 25 6 8 9 23 5 35 -5
17 -2 20 19 20 14 0 26 5 26 10 0 11 34 28 57 29 7 1 26 -14 43 -31z m-350
-79 c0 -5 -9 -9 -20 -9 -11 0 -20 -6 -20 -14 0 -7 -9 -16 -20 -19 -12 -3 -20
-14 -20 -26 0 -39 -43 -22 -53 20 -8 31 13 55 39 45 9 -4 23 -1 30 5 7 6 18 8
23 5 5 -4 12 -2 16 4 7 12 25 4 25 -11z m534 -338 c-4 -9 -6 -25 -5 -36 1 -11
-16 -54 -37 -95 -22 -41 -45 -92 -52 -113 -6 -20 -16 -35 -21 -32 -4 3 -11 -7
-15 -22 -3 -15 -7 -33 -9 -40 -5 -15 -46 -5 -62 15 -18 22 -16 1 1 -24 8 -11
17 -37 21 -57 9 -47 -13 -83 -57 -92 -17 -4 -39 -17 -48 -28 -11 -13 -23 -18
-33 -14 -21 8 -22 56 -2 63 22 9 19 45 -5 51 -25 7 -25 17 1 42 15 14 17 21 8
27 -8 4 -17 1 -23 -10 -36 -61 -54 -81 -74 -84 -20 -3 -22 0 -16 25 4 15 11
33 15 39 5 6 8 20 8 30 -5 46 2 65 25 74 13 5 27 14 31 20 4 6 14 9 22 6 8 -4
28 5 45 19 41 35 58 32 58 -7 l0 -33 17 33 c9 18 24 37 34 42 11 6 15 17 12
30 -4 15 11 36 63 86 38 36 69 73 70 82 0 9 4 28 9 41 l8 25 9 -24 c5 -13 6
-31 2 -39z m-249 -94 c-27 -66 -61 -80 -51 -19 4 22 17 46 34 59 33 28 39 15
17 -40z m653 -269 c-4 -27 -28 -36 -28 -10 0 20 8 32 22 32 5 0 8 -10 6 -22z
m-418 -59 c0 -11 -5 -30 -11 -41 -16 -31 -29 -3 -16 33 13 34 27 38 27 8z
m284 -31 c10 -16 16 -40 13 -54 -2 -13 2 -29 10 -36 8 -6 12 -17 9 -23 -2 -7
-1 -29 4 -49 9 -41 8 -42 -41 -51 -68 -13 -109 52 -112 177 -1 29 5 42 27 62
35 29 63 21 90 -26z m-1067 -283 c17 -7 34 -22 38 -33 3 -13 24 -27 53 -38 53
-19 77 -38 68 -52 -3 -5 -31 -22 -62 -38 -33 -17 -66 -43 -80 -64 l-24 -35 22
-3 c13 -2 29 -9 35 -14 13 -11 64 14 61 30 0 4 6 24 15 44 10 21 17 42 17 47
0 5 12 4 27 -4 26 -13 82 -10 93 6 3 4 24 12 46 18 23 6 47 18 53 25 15 18 86
14 127 -7 20 -10 35 -12 45 -6 23 14 34 11 64 -18 24 -25 27 -33 22 -75 -6
-44 -4 -48 15 -48 17 0 20 -5 16 -32 -4 -25 0 -36 18 -51 13 -10 24 -25 24
-33 0 -8 7 -17 15 -20 8 -3 17 -14 20 -25 4 -10 15 -19 25 -19 38 0 54 -78 23
-112 -9 -10 -22 -18 -30 -18 -8 0 -25 -11 -39 -25 -32 -32 -22 -53 13 -29 15
9 50 18 79 20 56 3 75 -8 81 -49 2 -11 7 -25 12 -31 15 -21 33 -105 26 -123
-5 -10 -7 -24 -6 -32 4 -22 -20 -71 -31 -64 -6 3 -9 0 -6 -8 4 -13 -10 -35
-46 -70 -14 -14 -23 -16 -32 -8 -24 19 -112 -10 -98 -33 3 -5 3 -27 -1 -48 -5
-31 -17 -48 -51 -77 -41 -33 -46 -35 -62 -20 -53 50 -64 58 -69 54 -6 -7 34
-47 47 -47 6 0 10 -2 10 -4 0 -2 3 -11 6 -19 10 -27 -32 -41 -68 -23 -42 21
-44 21 -58 -14 -16 -39 -1 -77 32 -82 17 -2 23 -10 24 -28 1 -14 2 -27 3 -30
1 -3 3 -35 4 -71 2 -62 4 -68 40 -104 40 -40 43 -54 26 -104 -13 -37 -5 -81
16 -81 8 0 15 -7 15 -15 0 -18 -12 -19 -27 -4 -8 8 -17 5 -32 -10 -22 -22 -27
-41 -11 -41 6 0 11 1 13 3 11 8 35 -34 30 -52 -3 -12 -1 -32 5 -44 27 -58 34
-88 27 -127 -5 -31 -3 -46 8 -58 14 -16 14 -21 -3 -59 -10 -23 -16 -44 -12
-47 3 -3 0 -6 -6 -6 -14 0 -42 -52 -42 -79 0 -11 -10 -36 -21 -56 -18 -30 -20
-42 -11 -75 9 -36 7 -43 -34 -105 -24 -37 -44 -78 -44 -92 0 -14 -4 -22 -10
-18 -6 4 -17 4 -25 1 -18 -6 -9 -36 11 -36 8 0 14 -9 14 -20 0 -11 7 -20 15
-20 16 0 18 -14 6 -44 -6 -16 -18 -19 -72 -20 -36 -1 -73 4 -84 11 -24 14 -95
14 -95 0 0 -9 -46 -57 -56 -57 -2 0 1 8 7 17 8 13 7 26 -1 48 -11 27 -13 28
-20 10 -4 -11 -4 -22 1 -25 15 -10 -20 -41 -50 -45 -19 -2 -29 0 -26 5 7 12
-18 13 -29 3 -4 -5 -35 -8 -69 -9 -43 0 -73 -7 -97 -21 -19 -11 -41 -18 -47
-16 -23 8 -14 -17 10 -27 12 -5 17 -9 10 -9 -6 -1 -13 -11 -15 -24 -2 -15 -13
-25 -35 -32 -18 -5 -33 -15 -33 -21 0 -7 -14 -12 -34 -11 -41 1 -71 -20 -56
-38 8 -10 2 -14 -25 -19 -20 -4 -39 -15 -42 -24 -10 -25 -22 -31 -85 -38 -48
-5 -57 -10 -60 -27 -2 -12 -16 -28 -33 -37 -16 -8 -32 -18 -35 -22 -3 -3 -14
-8 -25 -10 -26 -4 -36 -19 -28 -43 5 -18 4 -18 -11 -6 -24 20 -66 21 -66 1 0
-34 -16 -43 -51 -31 -31 11 -36 10 -54 -14 -21 -26 -45 -33 -45 -14 0 7 -9 9
-22 5 -13 -4 -29 -8 -35 -10 -7 -1 -28 -13 -45 -26 -18 -14 -41 -23 -51 -22
-10 2 -24 -1 -30 -6 -7 -5 -22 -12 -35 -15 -20 -5 -22 -2 -19 28 l4 34 -49
-19 c-27 -10 -56 -16 -64 -13 -9 3 -22 -3 -30 -16 -17 -24 -59 -28 -67 -7 -6
14 31 46 52 46 6 0 24 13 41 30 36 35 33 37 -18 11 -20 -10 -48 -22 -62 -26
l-25 -7 24 26 c14 14 54 40 89 57 35 16 62 33 58 36 -3 3 -1 12 5 20 18 21
-11 16 -41 -7 -14 -11 -37 -20 -52 -20 -15 0 -36 -9 -46 -20 -11 -12 -37 -23
-58 -26 -22 -3 -46 -8 -54 -11 -8 -3 -39 -6 -68 -7 -46 -2 -51 0 -36 11 10 7
28 13 41 13 14 0 23 6 23 15 0 8 -5 15 -11 15 -5 0 -7 5 -4 10 4 6 12 10 18 9
36 -4 48 2 42 21 -5 16 0 22 22 31 15 6 28 9 29 7 0 -2 18 13 39 34 21 20 52
39 68 42 17 3 27 9 24 13 -9 8 -97 -26 -97 -38 0 -5 -10 -9 -22 -9 -11 0 -45
-11 -74 -25 -45 -21 -57 -23 -78 -13 -27 12 -33 23 -16 33 14 9 12 25 -4 31
-8 3 -27 -7 -42 -23 l-29 -28 -3 28 c-2 16 -9 27 -18 27 -9 0 -12 5 -8 11 3 6
1 14 -5 18 -19 12 -1 39 31 46 19 5 26 10 19 15 -17 10 74 67 122 75 26 5 41
14 46 29 5 11 12 19 17 17 5 -2 14 6 20 19 7 12 13 17 16 10 4 -13 38 -3 38
11 0 11 -41 11 -59 0 -7 -5 -10 -14 -7 -20 11 -17 -5 -13 -18 5 -10 13 -17 13
-41 3 -38 -15 -124 -19 -149 -6 -12 6 -16 6 -12 -1 7 -11 -29 -23 -48 -16 -14
5 -9 62 6 82 13 15 32 16 22 0 -4 -7 -3 -8 4 -4 7 4 12 13 12 19 1 13 56 51
89 62 17 5 21 2 21 -14 0 -14 6 -21 19 -21 21 0 43 22 39 40 -2 7 3 15 10 17
7 3 12 -4 12 -19 0 -13 5 -29 12 -36 15 -15 55 -16 63 -1 4 6 13 8 21 5 7 -3
16 -1 19 4 4 6 -7 10 -24 10 -21 0 -31 5 -31 15 0 8 5 15 10 15 6 0 10 15 10
34 0 28 -4 35 -22 38 -33 4 -29 33 4 34 41 2 95 43 102 78 8 38 -6 53 -36 40
-25 -11 -98 -18 -98 -10 0 3 14 13 31 21 48 25 114 84 135 120 7 13 20 19 37
17 24 -2 27 2 27 28 0 17 4 30 9 30 5 0 12 14 16 30 4 17 15 35 26 40 29 16
23 30 -11 26 -17 -2 -29 -1 -28 3 2 3 15 31 29 61 15 31 34 62 43 69 9 7 16
19 16 25 0 26 22 35 50 21 24 -12 28 -12 43 6 9 10 25 19 36 19 26 0 51 10 51
21 0 5 -7 9 -16 9 -12 0 -15 6 -10 25 7 28 3 29 -40 16 -16 -5 -60 -12 -99
-15 -38 -2 -85 -8 -102 -12 -26 -5 -34 -3 -39 11 -4 9 -9 12 -13 7 -7 -11 -39
-16 -80 -14 -23 2 -23 3 -8 20 10 10 17 26 17 35 0 9 7 17 16 17 10 0 14 6 11
14 -3 7 0 19 6 25 8 8 8 11 -1 11 -6 0 -19 -12 -29 -27 -9 -16 -18 -29 -19
-31 -1 -2 -15 -5 -31 -7 -36 -4 -53 10 -53 45 0 23 -4 27 -31 27 -17 0 -35 6
-39 14 -5 9 -22 14 -44 14 -35 -2 -36 -1 -22 19 8 13 23 20 37 19 13 -1 18 0
12 3 -7 3 -13 12 -13 20 0 8 -6 14 -13 14 -7 0 -18 10 -26 22 -12 19 -11 23 5
35 10 7 29 13 42 13 18 0 23 4 18 16 -5 14 -1 16 34 10 32 -5 42 -3 47 10 3 9
1 19 -4 23 -6 3 -9 17 -8 31 1 14 3 35 4 47 1 29 50 43 146 43 28 -1 28 0 11
13 -15 11 -17 17 -7 35 7 13 9 27 6 32 -8 13 -81 13 -105 0 -11 -6 -33 -12
-49 -14 -22 -2 -32 2 -42 20 -7 13 -18 24 -26 24 -7 0 -13 11 -13 24 0 20 -4
23 -32 20 -18 -2 -40 -2 -49 1 -17 6 -16 8 2 26 12 12 27 18 36 15 9 -4 21 -2
27 3 13 10 71 9 82 -2 14 -14 21 -7 16 18 -2 14 -10 25 -17 25 -17 0 -29 32
-15 40 11 7 9 37 -4 59 -6 10 -5 12 2 7 7 -4 12 -3 12 2 0 6 -7 12 -15 16 -10
3 -15 -1 -15 -11 0 -9 -3 -14 -6 -10 -13 13 -29 -18 -26 -51 4 -29 2 -33 -14
-30 -12 2 -18 11 -17 23 6 52 16 85 27 85 6 0 3 7 -7 14 -16 12 -15 16 14 44
26 26 34 29 43 18 6 -8 20 -17 31 -20 24 -7 53 8 36 18 -16 10 -14 20 9 34 15
9 26 10 40 2 11 -6 68 -12 127 -15 60 -2 114 -4 121 -4 6 -1 12 -8 12 -18 0
-9 3 -13 7 -9 4 3 12 -8 17 -26 16 -48 40 -47 60 2 14 36 19 40 43 34 16 -3
43 -13 61 -22 22 -11 35 -13 40 -7 14 21 72 11 92 -15 11 -14 20 -20 20 -15 0
6 -5 16 -10 21 -8 8 -7 19 1 38 14 30 6 44 -15 27 -11 -9 -15 -8 -20 5 -9 23
-7 34 4 34 19 0 89 55 90 71 0 10 10 15 33 15 50 0 64 10 87 59 11 25 25 45
30 45 6 0 10 9 10 20 0 24 -8 25 -34 5 -25 -19 -40 -19 -32 0 8 22 -5 18 -43
-15 -19 -16 -37 -27 -40 -24 -3 3 5 14 19 24 27 21 21 26 -11 10 -15 -9 -19
-7 -19 5 0 13 -4 14 -20 5 -21 -11 -90 -4 -90 10 0 4 -11 11 -24 14 -40 10
-38 39 6 81 31 29 46 36 68 33 16 -2 27 -1 24 4 -3 4 3 8 13 8 17 1 17 1 0 14
-25 19 -21 25 23 32 49 8 61 23 32 42 -17 11 -22 24 -22 58 0 24 4 44 10 44 6
0 6 9 0 25 -6 16 -6 25 0 25 6 0 10 -4 10 -10 0 -5 9 -10 20 -10 11 0 19 3 18
8 0 4 1 14 5 22 3 8 10 29 15 45 7 25 13 29 35 27 44 -5 107 16 107 37 0 11 6
21 13 24 20 8 41 -8 32 -24 -6 -9 -4 -11 8 -6 8 3 21 -1 28 -9 17 -21 23 -10
7 15 -11 18 -10 23 7 35 11 9 26 13 33 11 6 -2 12 0 12 6 0 6 5 7 11 4 5 -4
19 1 29 10 17 16 19 15 30 -5 7 -12 10 -30 7 -40 -3 -10 0 -21 7 -23 6 -3 19
-18 29 -35 17 -30 17 -31 -8 -58 -26 -28 -32 -40 -15 -29 6 3 10 -3 10 -14 0
-11 -9 -25 -20 -31 -11 -6 -20 -16 -20 -22 0 -7 16 3 35 22 23 22 31 37 25 45
-6 7 -3 17 10 28 26 22 25 36 -4 71 -20 26 -22 34 -13 68 5 21 12 39 16 39 3
1 16 3 28 4 38 4 67 50 38 61 -8 3 -12 10 -9 15 6 10 26 6 81 -16z m552 -54
c0 -3 -4 -15 -9 -26 -7 -17 -9 -17 -9 -2 -1 12 -9 17 -27 17 -21 0 -24 3 -15
14 11 13 62 11 60 -3z m-1205 -257 c25 -10 19 -34 -8 -34 -19 0 -23 4 -19 20
6 22 6 22 27 14z m2122 -564 c-5 -33 -3 -41 14 -50 l20 -11 -20 -39 c-11 -22
-20 -47 -20 -56 0 -9 -9 -18 -20 -21 -11 -3 -20 -12 -20 -19 0 -8 -4 -14 -8
-14 -5 0 -25 -16 -45 -35 -21 -20 -37 -32 -37 -28 0 12 -39 9 -70 -4 -14 -6
-27 -8 -30 -5 -3 2 1 7 8 9 15 6 44 71 37 83 -7 11 19 58 40 74 9 7 29 37 43
67 19 39 37 59 62 71 49 25 53 23 46 -22z m-2860 -499 c-8 -13 -56 -15 -56 -3
0 13 44 31 54 22 4 -5 5 -13 2 -19z m99 -561 c3 -5 12 -7 19 -4 14 5 46 -20
46 -37 0 -12 -1 -12 -54 12 -26 11 -44 24 -41 30 8 12 22 12 30 -1z m103 -52
c-6 -18 -28 -21 -28 -4 0 9 7 16 16 16 9 0 14 -5 12 -12z m23 -31 c-13 -13
-26 -3 -16 12 3 6 11 8 17 5 6 -4 6 -10 -1 -17z m2429 -247 c0 -5 -4 -10 -10
-10 -5 0 -10 5 -10 10 0 6 5 10 10 10 6 0 10 -4 10 -10z m-2405 -1099 c-3 -6
-14 -11 -23 -11 -15 1 -15 2 2 15 21 16 32 13 21 -4z m4215 -556 c7 -8 22 -15
33 -15 21 0 57 -26 57 -42 0 -5 -11 -13 -24 -18 -14 -5 -26 -19 -28 -32 -4
-26 -51 -48 -72 -33 -67 50 -100 66 -123 60 -24 -6 -24 -6 -6 19 10 13 32 27
50 31 17 3 42 14 55 25 28 24 42 25 58 5z m-2570 -638 c0 -21 -30 -57 -47 -57
-12 0 -9 7 10 24 15 14 23 27 18 30 -5 3 -12 -2 -15 -11 -5 -12 -10 -13 -17
-6 -6 6 -8 16 -5 22 10 15 56 14 56 -2z m2100 -188 c0 -5 -2 -9 -4 -9 -2 0
-11 -3 -19 -6 -8 -3 -17 1 -19 8 -4 8 3 14 18 14 13 1 24 -2 24 -7z m-178
-191 c-7 -7 -12 -20 -12 -30 0 -14 -8 -18 -33 -18 -57 0 -56 9 7 58 20 15 33
19 40 12 7 -7 6 -14 -2 -22z m38 -2 c0 -3 -4 -8 -10 -11 -5 -3 -10 -1 -10 4 0
6 5 11 10 11 6 0 10 -2 10 -4z m42 -48 c-15 -15 -26 -4 -18 18 5 13 9 15 18 6
9 -9 9 -15 0 -24z m143 -131 c28 -5 35 -67 8 -67 -11 0 -25 6 -31 12 -10 10
-14 10 -21 0 -14 -23 -46 0 -48 34 -3 31 -2 32 35 29 20 -2 46 -5 57 -8z"/>
<path d="M4805 10170 c-3 -6 1 -7 9 -4 18 7 21 14 7 14 -6 0 -13 -4 -16 -10z"/>
<path d="M3093 8218 c-20 -26 -26 -41 -15 -34 12 7 36 46 29 46 -3 0 -9 -6
-14 -12z"/>
<path d="M2759 7609 c11 -12 25 -19 33 -16 9 4 8 6 -3 6 -9 1 -19 8 -23 16 -3
8 -10 15 -16 15 -6 0 -2 -9 9 -21z"/>
<path d="M3318 7593 c7 -3 16 -2 19 1 4 3 -2 6 -13 5 -11 0 -14 -3 -6 -6z"/>
<path d="M3300 7403 c-29 -20 -60 -56 -54 -62 2 -2 14 8 26 24 11 15 35 33 52
41 17 7 24 13 16 14 -9 0 -27 -8 -40 -17z"/>
<path d="M2614 7289 c-3 -5 6 -9 20 -9 31 0 34 6 6 13 -11 3 -23 1 -26 -4z"/>
<path d="M3245 7240 c3 -5 17 -10 30 -10 13 0 27 5 30 10 4 6 -8 10 -30 10
-22 0 -34 -4 -30 -10z"/>
<path d="M2671 7136 l-24 -31 28 27 c16 15 27 29 24 31 -2 3 -15 -10 -28 -27z"/>
<path d="M2585 7030 c11 -5 29 -9 40 -9 l20 0 -20 9 c-11 5 -29 9 -40 9 l-20
0 20 -9z"/>
<path d="M2560 6804 c0 -3 5 -14 10 -25 16 -28 30 -23 17 6 -11 22 -27 34 -27
19z"/>
<path d="M2820 6540 c-6 -11 -8 -20 -6 -20 3 0 10 9 16 20 6 11 8 20 6 20 -3
0 -10 -9 -16 -20z"/>
<path d="M3954 6263 c-19 -3 -47 -19 -72 -44 -23 -21 -47 -39 -53 -39 -7 0
-10 -2 -7 -5 5 -5 178 83 178 91 0 2 -3 3 -7 2 -5 0 -22 -3 -39 -5z"/>
<path d="M2885 6026 c-8 -19 -19 -36 -25 -39 -6 -3 -5 -4 2 -3 7 1 18 12 23
23 6 12 17 28 24 37 10 11 10 16 2 16 -7 0 -18 -15 -26 -34z"/>
<path d="M3977 3503 c25 -44 42 -52 78 -37 l30 13 -28 1 c-16 0 -44 12 -63 26
l-35 27 18 -30z"/>
<path d="M3428 2813 c7 -3 16 -2 19 1 4 3 -2 6 -13 5 -11 0 -14 -3 -6 -6z"/>
<path d="M5820 1891 c0 -6 -7 -11 -16 -11 -8 0 -13 -4 -10 -9 3 -5 17 -8 31
-8 18 0 25 4 23 15 -3 18 -28 29 -28 13z"/>
<path d="M4780 1446 c0 -2 8 -10 18 -17 15 -13 16 -12 3 4 -13 16 -21 21 -21
13z"/>
<path d="M4915 1400 c3 -5 8 -10 11 -10 2 0 4 5 4 10 0 6 -5 10 -11 10 -5 0
-7 -4 -4 -10z"/>
<path d="M4965 1390 c4 -6 11 -8 16 -5 14 9 11 15 -7 15 -8 0 -12 -5 -9 -10z"/>
<path d="M4471 1301 c-10 -7 -10 -10 -1 -16 6 -4 16 -3 22 3 13 13 -4 23 -21
13z"/>
<path d="M4235 1210 c-3 -5 -1 -10 4 -10 6 0 11 5 11 10 0 6 -2 10 -4 10 -3 0
-8 -4 -11 -10z"/>
<path d="M1730 7250 c0 -5 5 -10 11 -10 5 0 7 5 4 10 -3 6 -8 10 -11 10 -2 0
-4 -4 -4 -10z"/>
<path d="M2580 4552 c0 -12 8 -26 18 -31 18 -10 22 -63 8 -108 -6 -18 -4 -22
8 -17 9 3 16 12 16 19 0 7 6 18 13 24 24 19 7 80 -30 109 -32 24 -33 24 -33 4z"/>
<path d="M1100 4320 c0 -5 9 -10 21 -10 11 0 17 5 14 10 -3 6 -13 10 -21 10
-8 0 -14 -4 -14 -10z"/>
<path d="M400 4050 c0 -7 24 -20 36 -20 13 0 1 19 -16 23 -11 3 -20 2 -20 -3z"/>
<path d="M443 3543 c-21 -8 -15 -22 7 -16 11 3 20 9 20 14 0 10 -8 10 -27 2z"/>
<path d="M556 3451 c-4 -7 -5 -15 -2 -18 9 -9 19 4 14 18 -4 11 -6 11 -12 0z"/>
<path d="M1246 2225 c4 -8 7 -15 9 -15 1 0 8 7 15 15 10 13 9 15 -8 15 -15 0
-20 -5 -16 -15z"/>
</g>
</svg>
